<svg xmlns="http://www.w3.org/2000/svg" xmlns:xlink="http://www.w3.org/1999/xlink" width="558" zoomAndPan="magnify" viewBox="0 0 418.5 419.249996" height="559" preserveAspectRatio="xMidYMid meet" version="1.0"><defs><g/><clipPath id="a9e973b04c"><path d="M 59.339844 59.839844 L 357 59.839844 L 357 355 L 59.339844 355 Z M 59.339844 59.839844 " clip-rule="nonzero"/></clipPath><clipPath id="cd5164e3ae"><path d="M 62 64 L 359.164062 64 L 359.164062 359.664062 L 62 359.664062 Z M 62 64 " clip-rule="nonzero"/></clipPath><clipPath id="746379e38f"><path d="M 302 199 L 330 199 L 330 226 L 302 226 Z M 302 199 " clip-rule="nonzero"/></clipPath><clipPath id="5d9bb35ad0"><path d="M 310.5625 160.476562 L 338.628906 165.191406 L 327.894531 229.070312 L 299.828125 224.351562 Z M 310.5625 160.476562 " clip-rule="nonzero"/></clipPath><clipPath id="59ef3657b5"><path d="M 310.5625 160.476562 L 338.628906 165.191406 L 327.894531 229.070312 L 299.828125 224.351562 Z M 310.5625 160.476562 " clip-rule="nonzero"/></clipPath><clipPath id="cfd2ac0edc"><path d="M 299 195 L 334 195 L 334 229 L 299 229 Z M 299 195 " clip-rule="nonzero"/></clipPath><clipPath id="bb8cc60b1e"><path d="M 310.5625 160.476562 L 338.628906 165.191406 L 327.894531 229.070312 L 299.828125 224.351562 Z M 310.5625 160.476562 " clip-rule="nonzero"/></clipPath><clipPath id="1ebd34bbaa"><path d="M 310.5625 160.476562 L 338.628906 165.191406 L 327.894531 229.070312 L 299.828125 224.351562 Z M 310.5625 160.476562 " clip-rule="nonzero"/></clipPath><clipPath id="59fa251551"><path d="M 302 199 L 320 199 L 320 226 L 302 226 Z M 302 199 " clip-rule="nonzero"/></clipPath><clipPath id="72b9d526ac"><path d="M 310.5625 160.476562 L 338.628906 165.191406 L 327.894531 229.070312 L 299.828125 224.351562 Z M 310.5625 160.476562 " clip-rule="nonzero"/></clipPath><clipPath id="c561917185"><path d="M 310.5625 160.476562 L 338.628906 165.191406 L 327.894531 229.070312 L 299.828125 224.351562 Z M 310.5625 160.476562 " clip-rule="nonzero"/></clipPath><clipPath id="266c501ef0"><path d="M 315 163 L 332 163 L 332 200 L 315 200 Z M 315 163 " clip-rule="nonzero"/></clipPath><clipPath id="19d2e82307"><path d="M 310.5625 160.476562 L 338.628906 165.191406 L 327.894531 229.070312 L 299.828125 224.351562 Z M 310.5625 160.476562 " clip-rule="nonzero"/></clipPath><clipPath id="ffe769299b"><path d="M 310.5625 160.476562 L 338.628906 165.191406 L 327.894531 229.070312 L 299.828125 224.351562 Z M 310.5625 160.476562 " clip-rule="nonzero"/></clipPath><clipPath id="a2c4d0960b"><path d="M 312 161 L 335 161 L 335 203 L 312 203 Z M 312 161 " clip-rule="nonzero"/></clipPath><clipPath id="a210835fc3"><path d="M 310.5625 160.476562 L 338.628906 165.191406 L 327.894531 229.070312 L 299.828125 224.351562 Z M 310.5625 160.476562 " clip-rule="nonzero"/></clipPath><clipPath id="70c929e7c4"><path d="M 310.5625 160.476562 L 338.628906 165.191406 L 327.894531 229.070312 L 299.828125 224.351562 Z M 310.5625 160.476562 " clip-rule="nonzero"/></clipPath><clipPath id="87c8ffa017"><path d="M 320 201 L 327 201 L 327 208 L 320 208 Z M 320 201 " clip-rule="nonzero"/></clipPath><clipPath id="5da54d2c2a"><path d="M 310.5625 160.476562 L 338.628906 165.191406 L 327.894531 229.070312 L 299.828125 224.351562 Z M 310.5625 160.476562 " clip-rule="nonzero"/></clipPath><clipPath id="545a5fb402"><path d="M 310.5625 160.476562 L 338.628906 165.191406 L 327.894531 229.070312 L 299.828125 224.351562 Z M 310.5625 160.476562 " clip-rule="nonzero"/></clipPath><clipPath id="6bef7197cb"><path d="M 307 205 L 314 205 L 314 212 L 307 212 Z M 307 205 " clip-rule="nonzero"/></clipPath><clipPath id="82cddb075d"><path d="M 308.183594 205.707031 L 313.800781 206.113281 L 313.386719 211.824219 L 307.769531 211.414062 Z M 308.183594 205.707031 " clip-rule="nonzero"/></clipPath><clipPath id="7effb1adfd"><path d="M 310.960938 205.90625 C 309.425781 205.796875 308.09375 206.964844 307.980469 208.519531 C 307.867188 210.078125 309.015625 211.425781 310.550781 211.539062 C 312.082031 211.648438 313.414062 210.480469 313.527344 208.925781 C 313.640625 207.371094 312.492188 206.019531 310.960938 205.90625 " clip-rule="nonzero"/></clipPath><clipPath id="8b6a4c9b2b"><path d="M 308 206 L 313 206 L 313 211 L 308 211 Z M 308 206 " clip-rule="nonzero"/></clipPath><clipPath id="727f528056"><path d="M 308.527344 206.40625 L 312.785156 206.714844 L 312.476562 210.972656 L 308.21875 210.664062 Z M 308.527344 206.40625 " clip-rule="nonzero"/></clipPath><clipPath id="ff82ad89b7"><path d="M 310.65625 206.5625 C 309.480469 206.476562 308.460938 207.359375 308.375 208.535156 C 308.289062 209.710938 309.171875 210.734375 310.347656 210.816406 C 311.523438 210.902344 312.546875 210.019531 312.632812 208.84375 C 312.714844 207.667969 311.832031 206.648438 310.65625 206.5625 " clip-rule="nonzero"/></clipPath><clipPath id="e2ae4eb4f9"><path d="M 311 207 L 313 207 L 313 209 L 311 209 Z M 311 207 " clip-rule="nonzero"/></clipPath><clipPath id="a363464a0e"><path d="M 311.167969 207.351562 L 312.902344 207.476562 L 312.800781 208.886719 L 311.066406 208.757812 Z M 311.167969 207.351562 " clip-rule="nonzero"/></clipPath><clipPath id="01943e96a1"><path d="M 312.035156 207.414062 C 311.558594 207.378906 311.148438 207.664062 311.117188 208.050781 C 311.089844 208.433594 311.457031 208.773438 311.933594 208.808594 C 312.414062 208.84375 312.824219 208.558594 312.851562 208.175781 C 312.878906 207.789062 312.515625 207.449219 312.035156 207.414062 " clip-rule="nonzero"/></clipPath><clipPath id="0dbe1ee643"><path d="M 318 206 L 324 206 L 324 213 L 318 213 Z M 318 206 " clip-rule="nonzero"/></clipPath><clipPath id="d9b80ced6a"><path d="M 318.597656 206.460938 L 324.210938 206.871094 L 323.796875 212.582031 L 318.179688 212.171875 Z M 318.597656 206.460938 " clip-rule="nonzero"/></clipPath><clipPath id="4f92d4dba6"><path d="M 321.371094 206.664062 C 319.839844 206.554688 318.503906 207.722656 318.390625 209.277344 C 318.277344 210.832031 319.429688 212.183594 320.960938 212.296875 C 322.492188 212.40625 323.828125 211.238281 323.9375 209.683594 C 324.050781 208.125 322.902344 206.777344 321.371094 206.664062 " clip-rule="nonzero"/></clipPath><clipPath id="f1823754aa"><path d="M 318 207 L 324 207 L 324 212 L 318 212 Z M 318 207 " clip-rule="nonzero"/></clipPath><clipPath id="0a7de4ad66"><path d="M 318.941406 207.164062 L 323.195312 207.472656 L 322.886719 211.730469 L 318.628906 211.421875 Z M 318.941406 207.164062 " clip-rule="nonzero"/></clipPath><clipPath id="53b6c00cf3"><path d="M 321.066406 207.316406 C 319.894531 207.234375 318.871094 208.117188 318.785156 209.292969 C 318.699219 210.46875 319.582031 211.488281 320.757812 211.574219 C 321.933594 211.660156 322.957031 210.777344 323.042969 209.601562 C 323.128906 208.425781 322.242188 207.402344 321.066406 207.316406 " clip-rule="nonzero"/></clipPath><clipPath id="bfa779610e"><path d="M 321 208 L 324 208 L 324 210 L 321 210 Z M 321 208 " clip-rule="nonzero"/></clipPath><clipPath id="51a70964d7"><path d="M 321.582031 208.109375 L 323.3125 208.234375 L 323.210938 209.644531 L 321.476562 209.515625 Z M 321.582031 208.109375 " clip-rule="nonzero"/></clipPath><clipPath id="6ccef87421"><path d="M 322.445312 208.171875 C 321.96875 208.136719 321.558594 208.421875 321.53125 208.804688 C 321.5 209.191406 321.867188 209.53125 322.34375 209.566406 C 322.824219 209.601562 323.234375 209.316406 323.261719 208.933594 C 323.289062 208.546875 322.925781 208.207031 322.445312 208.171875 " clip-rule="nonzero"/></clipPath><clipPath id="d63c558cbf"><path d="M 310 214 L 321 214 L 321 218 L 310 218 Z M 310 214 " clip-rule="nonzero"/></clipPath><clipPath id="9915501f45"><path d="M 310.578125 214.601562 L 320.855469 215.351562 L 320.660156 218.042969 L 310.382812 217.292969 Z M 310.578125 214.601562 " clip-rule="nonzero"/></clipPath><clipPath id="1a250b5d6a"><path d="M 310.578125 214.601562 L 320.855469 215.351562 L 320.660156 218.042969 L 310.382812 217.292969 Z M 310.578125 214.601562 " clip-rule="nonzero"/></clipPath><clipPath id="a21ad73aad"><path d="M 310.578125 214.601562 L 320.855469 215.351562 L 320.660156 218.042969 L 310.382812 217.292969 Z M 310.578125 214.601562 " clip-rule="nonzero"/></clipPath></defs><path fill="#ff5757" d="M 350.796875 209.296875 C 350.734375 239.40625 340.695312 269.261719 322.933594 293.515625 C 306.007812 316.675781 282.195312 334.5625 255.230469 344.277344 C 227.238281 354.378906 196.21875 355.539062 167.582031 347.6875 C 139.84375 340.03125 114.683594 324.011719 95.957031 302.136719 C 77.035156 280.003906 65.066406 252.339844 62.042969 223.386719 C 58.824219 192.441406 66.867188 160.59375 83.40625 134.34375 C 98.660156 110.085938 121.117188 90.65625 147.3125 79.011719 C 174.597656 66.914062 205.488281 63.570312 234.769531 69.488281 C 262.953125 75.152344 289.148438 89.433594 309.289062 109.957031 C 329.5625 130.609375 343.398438 157.183594 348.546875 185.683594 C 350.027344 193.789062 350.796875 202.027344 350.796875 210.261719 C 350.796875 212.449219 350.863281 210.324219 350.796875 209.296875 C 350.734375 179.765625 342.367188 150.941406 325.636719 126.492188 C 308.773438 101.914062 284.382812 82.742188 256.453125 72.382812 C 227.496094 61.640625 195.191406 60.480469 165.457031 69.167969 C 136.757812 77.53125 111.015625 94.902344 92.417969 118.386719 C 73.753906 141.933594 62.878906 171.015625 61.398438 200.996094 C 59.980469 229.757812 65.96875 258.324219 80.382812 283.351562 C 95.121094 309.019531 117.773438 329.929688 144.609375 342.542969 C 172.667969 355.730469 204.84375 359.460938 235.21875 353.222656 C 264.5 347.238281 291.527344 331.988281 311.929688 310.113281 C 332.457031 288.175781 345.777344 259.929688 349.640625 230.140625 C 350.476562 223.515625 350.863281 216.886719 350.863281 210.195312 C 350.863281 209.167969 350.796875 207.042969 350.796875 209.296875 Z M 350.796875 209.296875 " fill-opacity="1" fill-rule="nonzero"/><path fill="#ff5757" d="M 245.773438 349.039062 C 217.007812 355.730469 186.632812 353.671875 159.152344 342.796875 C 132.445312 332.183594 109.148438 313.652344 92.929688 289.914062 C 75.621094 264.628906 66.03125 233.039062 67.898438 202.285156 C 69.699219 173.265625 80.511719 145.085938 98.402344 122.183594 C 135.148438 75.214844 199.050781 55.335938 255.941406 73.285156 C 283.035156 81.84375 307.359375 98.378906 325.183594 120.507812 C 344.167969 143.992188 355.367188 173.332031 357.039062 203.441406 C 360.386719 263.148438 321.644531 320.34375 266.75 342.414062 C 259.929688 345.113281 252.914062 347.300781 245.773438 349.039062 C 245.515625 349.105469 245.964844 352.191406 245.773438 352.257812 C 275.503906 345.113281 302.46875 328.835938 322.417969 305.609375 C 341.917969 282.898438 354.015625 254.203125 356.71875 224.417969 C 359.292969 195.976562 354.207031 167.027344 341.082031 141.613281 C 327.308594 114.910156 305.105469 92.972656 278.335938 79.269531 C 251.433594 65.4375 220.417969 60.417969 190.492188 65.050781 C 160.117188 69.746094 131.609375 84.160156 109.855469 105.96875 C 88.8125 127.136719 74.589844 154.738281 69.636719 184.203125 C 64.9375 212.128906 68.089844 241.59375 79.09375 267.714844 C 90.742188 295.382812 111.144531 318.992188 136.757812 334.757812 C 162.5 350.519531 193.003906 358.046875 223.121094 355.730469 C 230.777344 355.152344 238.308594 353.929688 245.773438 352.191406 C 246.03125 352.191406 245.578125 349.105469 245.773438 349.039062 Z M 245.773438 349.039062 " fill-opacity="1" fill-rule="nonzero"/><g clip-path="url(#a9e973b04c)"><path fill="#ff5757" d="M 277.949219 335.851562 C 250.984375 350.328125 219.515625 355.796875 189.269531 351.613281 C 160.4375 347.625 132.960938 335.078125 111.273438 315.648438 C 88.75 295.574219 72.722656 268.421875 65.96875 239.019531 C 59.402344 210.582031 61.589844 180.34375 72.082031 153.128906 C 82.699219 125.59375 101.683594 101.53125 126.074219 84.867188 C 152.136719 67.042969 184.507812 58.875 215.910156 60.996094 C 244.9375 62.925781 273.121094 73.542969 296.160156 91.300781 C 320.164062 109.828125 337.992188 135.820312 346.871094 164.773438 C 355.429688 192.695312 355.300781 222.9375 346.742188 250.792969 C 338.121094 278.847656 321.003906 304.066406 298.027344 322.339844 C 291.527344 327.550781 284.511719 332.246094 277.175781 336.234375 C 275.183594 337.328125 277.046875 336.363281 277.949219 335.851562 C 304.269531 321.566406 325.957031 300.140625 339.730469 273.441406 C 353.566406 246.546875 358.90625 215.539062 354.660156 185.554688 C 350.28125 154.480469 335.738281 125.140625 313.664062 102.816406 C 292.363281 81.199219 264.371094 66.65625 234.511719 61.382812 C 204.519531 56.105469 173.246094 60.417969 145.765625 73.542969 C 119.445312 86.152344 96.792969 105.261719 81.414062 130.160156 C 65.582031 155.765625 57.859375 186.070312 59.597656 216.050781 C 61.398438 247.449219 73.5625 277.945312 93.769531 302.074219 C 113.265625 325.296875 139.910156 342.089844 169.253906 349.746094 C 198.730469 357.46875 230.390625 355.730469 258.835938 344.792969 C 265.144531 342.347656 271.257812 339.453125 277.242188 336.234375 C 278.078125 335.851562 280.007812 334.757812 277.949219 335.851562 Z M 277.949219 335.851562 " fill-opacity="1" fill-rule="nonzero"/></g><g clip-path="url(#cd5164e3ae)"><path fill="#ff5757" d="M 102.519531 309.535156 C 82.636719 287.082031 69.894531 259.03125 66.351562 229.242188 C 62.941406 200.289062 68.21875 170.566406 81.605469 144.636719 C 95.828125 116.972656 119.445312 93.164062 147.761719 80.039062 C 174.53125 67.625 204.90625 63.699219 233.996094 68.589844 C 293.652344 78.691406 342.238281 126.105469 353.628906 185.554688 C 359.035156 213.863281 356.011719 243.589844 344.878906 270.160156 C 333.101562 298.40625 312.3125 322.53125 286.25 338.617188 C 234.574219 370.398438 164.816406 363.386719 118.609375 325.105469 C 112.882812 320.28125 107.539062 315.070312 102.519531 309.535156 C 102.328125 309.34375 99.816406 311.273438 99.625 311.078125 C 120.347656 334.175781 147.890625 350.390625 178.265625 356.953125 C 207.933594 363.386719 239.402344 360.363281 267.332031 348.394531 C 293.910156 336.945312 317.332031 318.480469 333.679688 294.542969 C 350.863281 269.386719 359.808594 238.957031 359.097656 208.523438 C 358.390625 177.835938 347.964844 147.726562 329.367188 123.277344 C 310.511719 98.441406 283.933594 79.910156 253.945312 71.035156 C 224.984375 62.410156 193.386719 62.992188 164.75 72.769531 C 137.527344 82.097656 112.6875 99.085938 94.667969 121.539062 C 75.621094 145.28125 64.359375 174.875 62.683594 205.308594 C 61.011719 235.933594 69.054688 266.6875 85.59375 292.484375 C 89.777344 299.046875 94.539062 305.226562 99.6875 311.015625 C 99.882812 311.273438 102.390625 309.34375 102.519531 309.535156 Z M 102.519531 309.535156 " fill-opacity="1" fill-rule="nonzero"/></g><g fill="#ff5757" fill-opacity="1"><g transform="translate(99.534576, 222.472663)"><g><path d="M 41.578125 -34.75 C 40.109375 -32.820312 37.867188 -32.664062 34.859375 -34.28125 C 31.847656 -35.90625 28.664062 -36.71875 25.3125 -36.71875 C 21.957031 -36.71875 19.585938 -35.867188 18.203125 -34.171875 C 16.828125 -32.472656 19.550781 -30.039062 26.375 -26.875 C 33.207031 -23.71875 36.59375 -19.453125 36.53125 -14.078125 C 36.476562 -8.703125 31.984375 -4.257812 23.046875 -0.75 C 14.109375 2.75 7.84375 4.0625 4.25 3.1875 C 0.664062 2.320312 -1.039062 0.828125 -0.875 -1.296875 C -0.71875 -3.429688 -0.332031 -4.765625 0.28125 -5.296875 C 0.894531 -5.828125 2.320312 -5.773438 4.5625 -5.140625 C 6.8125 -4.515625 10.6875 -4.695312 16.1875 -5.6875 C 21.695312 -6.6875 25.351562 -8.082031 27.15625 -9.875 C 28.957031 -11.675781 28.738281 -13.453125 26.5 -15.203125 C 24.269531 -16.953125 20.453125 -19.25 15.046875 -22.09375 C 9.648438 -24.945312 7.175781 -28.601562 7.625 -33.0625 C 8.082031 -37.519531 12.195312 -40.59375 19.96875 -42.28125 C 27.738281 -43.96875 33.648438 -43.613281 37.703125 -41.21875 C 41.765625 -38.832031 43.054688 -36.675781 41.578125 -34.75 Z M 41.578125 -34.75 "/></g></g></g><g fill="#ff5757" fill-opacity="1"><g transform="translate(136.134471, 222.472663)"><g><path d="M 13.484375 -23.84375 C 16.078125 -24.125 17.265625 -22.25 17.046875 -18.21875 C 16.179688 -14.238281 15.75 -11.804688 15.75 -10.921875 C 15.75 -9.867188 16.054688 -9.316406 16.671875 -9.265625 C 17.796875 -9.265625 20.109375 -10.066406 23.609375 -11.671875 L 23.765625 -11.296875 L 23.765625 -10.359375 C 23.484375 -9.441406 22.1875 -8.507812 19.875 -7.5625 C 19.113281 -6.945312 18.109375 -6.640625 16.859375 -6.640625 C 14.859375 -6.828125 13.550781 -7.742188 12.9375 -9.390625 C 12.320312 -11.046875 12.015625 -12.25 12.015625 -13 L 11.828125 -13 C 8.898438 -7.757812 6.34375 -5.140625 4.15625 -5.140625 C 3.644531 -5.140625 3.332031 -5.140625 3.21875 -5.140625 C 1.875 -5.140625 0.695312 -6.347656 -0.3125 -8.765625 C -1.332031 -11.179688 -0.0390625 -14.40625 3.5625 -18.4375 C 7.707031 -21.414062 10.085938 -22.90625 10.703125 -22.90625 C 12.429688 -23.53125 13.359375 -23.84375 13.484375 -23.84375 Z M 2.484375 -8.890625 L 3.015625 -8.53125 C 5.941406 -10.019531 8.015625 -11.828125 9.234375 -13.953125 C 10.460938 -16.085938 11.078125 -17.332031 11.078125 -17.6875 L 11.078125 -18.21875 L 10.875 -18.21875 C 7.570312 -17.207031 5.347656 -15.472656 4.203125 -13.015625 C 3.054688 -10.566406 2.484375 -9.191406 2.484375 -8.890625 Z M 2.484375 -8.890625 "/></g></g></g><g fill="#ff5757" fill-opacity="1"><g transform="translate(159.70864, 222.472663)"><g><path d="M 10.953125 -41.234375 L 11.15625 -41.234375 C 12.863281 -41.234375 14.234375 -40.132812 15.265625 -37.9375 C 15.265625 -36.707031 13.210938 -29.378906 9.109375 -15.953125 C 9.054688 -15.492188 8.992188 -14.972656 8.921875 -14.390625 L 18.96875 -19.65625 C 22.644531 -20.8125 24.015625 -20.253906 23.078125 -17.984375 C 22.535156 -16.523438 20.421875 -14.960938 16.734375 -13.296875 L 14.234375 -12.046875 C 16.285156 -6.878906 17.660156 -3.113281 18.359375 -0.75 C 20.148438 3.40625 22.300781 5.691406 24.8125 6.109375 C 27.332031 6.523438 29.765625 6.425781 32.109375 5.8125 C 35.191406 5.1875 35.617188 5.648438 33.390625 7.203125 C 31.160156 8.753906 28.8125 9.53125 26.34375 9.53125 C 22.226562 9.53125 17.851562 7.335938 13.21875 2.953125 L 10.53125 -0.9375 L 7.25 -6.46875 C 7.25 -7.019531 6.9375 -7.707031 6.3125 -8.53125 C 5.28125 -7.394531 4.296875 -4.113281 3.359375 1.3125 C 3.265625 2 3.0625 2.34375 2.75 2.34375 L 2.109375 2.34375 C -1.367188 1.175781 -2.460938 -1.90625 -1.171875 -6.90625 C 2.910156 -20.738281 5.867188 -29.914062 7.703125 -34.4375 C 9.546875 -38.96875 10.628906 -41.234375 10.953125 -41.234375 Z M 10.953125 -41.234375 "/></g></g></g><g fill="#ff5757" fill-opacity="1"><g transform="translate(181.418186, 222.472663)"><g><path d="M 20.890625 -3.390625 C 19.585938 -2.921875 18.304688 -2.785156 17.046875 -2.984375 C 15.785156 -3.179688 14.753906 -3.972656 13.953125 -5.359375 C 13.160156 -6.742188 13.019531 -8.847656 13.53125 -11.671875 L 13.40625 -11.671875 C 10.539062 -7.847656 7.921875 -5.992188 5.546875 -6.109375 C 3.179688 -6.222656 1.582031 -7.789062 0.75 -10.8125 C 0.320312 -12.425781 0.367188 -15.160156 0.890625 -19.015625 C 1.410156 -22.867188 2.132812 -25.210938 3.0625 -26.046875 C 3.988281 -26.890625 4.984375 -26.695312 6.046875 -25.46875 C 7.378906 -23.507812 7.316406 -18.285156 5.859375 -9.796875 L 5.890625 -9.484375 C 7.472656 -10.117188 9.117188 -11.148438 10.828125 -12.578125 C 12.546875 -14.015625 13.921875 -16.3125 14.953125 -19.46875 C 15.992188 -22.632812 16.84375 -24.484375 17.5 -25.015625 L 18.140625 -25.09375 C 20.234375 -25.46875 20.976562 -23.664062 20.375 -19.6875 C 19.050781 -12.007812 18.582031 -7.492188 18.96875 -6.140625 C 19.363281 -4.785156 20.003906 -3.867188 20.890625 -3.390625 Z M 20.890625 -3.390625 "/></g></g></g><g fill="#ff5757" fill-opacity="1"><g transform="translate(202.142144, 222.472663)"><g><path d="M 4.265625 -26 C 6.710938 -24.863281 7.9375 -23.390625 7.9375 -21.578125 L 7.9375 -19.390625 C 10.382812 -22.003906 13.554688 -23.3125 17.453125 -23.3125 C 20.046875 -23.3125 22.328125 -22.242188 24.296875 -20.109375 C 24.617188 -19.273438 24.300781 -18.867188 23.34375 -18.890625 C 23.21875 -18.890625 22.726562 -18.976562 21.875 -19.15625 C 15.8125 -20.769531 11.203125 -17.75 8.046875 -10.09375 C 6.335938 -4.269531 5.15625 -0.109375 4.5 2.390625 L 4 2.640625 L 3.515625 2.640625 C -0.359375 1.710938 -1.820312 -1.316406 -0.875 -6.453125 C 1.414062 -11.492188 3.039062 -15.96875 4 -19.875 C 4.40625 -20.332031 4.734375 -21.390625 4.984375 -23.046875 C 4.097656 -24.109375 2.867188 -24.476562 1.296875 -24.15625 C -0.273438 -23.84375 -0.988281 -24.03125 -0.84375 -24.71875 C -0.707031 -25.414062 0.015625 -25.765625 1.328125 -25.765625 C 2.460938 -25.921875 3.441406 -26 4.265625 -26 Z M 4.265625 -26 "/></g></g></g><g fill="#ff5757" fill-opacity="1"><g transform="translate(227.128099, 222.472663)"><g><path d="M 13.484375 -23.84375 C 16.078125 -24.125 17.265625 -22.25 17.046875 -18.21875 C 16.179688 -14.238281 15.75 -11.804688 15.75 -10.921875 C 15.75 -9.867188 16.054688 -9.316406 16.671875 -9.265625 C 17.796875 -9.265625 20.109375 -10.066406 23.609375 -11.671875 L 23.765625 -11.296875 L 23.765625 -10.359375 C 23.484375 -9.441406 22.1875 -8.507812 19.875 -7.5625 C 19.113281 -6.945312 18.109375 -6.640625 16.859375 -6.640625 C 14.859375 -6.828125 13.550781 -7.742188 12.9375 -9.390625 C 12.320312 -11.046875 12.015625 -12.25 12.015625 -13 L 11.828125 -13 C 8.898438 -7.757812 6.34375 -5.140625 4.15625 -5.140625 C 3.644531 -5.140625 3.332031 -5.140625 3.21875 -5.140625 C 1.875 -5.140625 0.695312 -6.347656 -0.3125 -8.765625 C -1.332031 -11.179688 -0.0390625 -14.40625 3.5625 -18.4375 C 7.707031 -21.414062 10.085938 -22.90625 10.703125 -22.90625 C 12.429688 -23.53125 13.359375 -23.84375 13.484375 -23.84375 Z M 2.484375 -8.890625 L 3.015625 -8.53125 C 5.941406 -10.019531 8.015625 -11.828125 9.234375 -13.953125 C 10.460938 -16.085938 11.078125 -17.332031 11.078125 -17.6875 L 11.078125 -18.21875 L 10.875 -18.21875 C 7.570312 -17.207031 5.347656 -15.472656 4.203125 -13.015625 C 3.054688 -10.566406 2.484375 -9.191406 2.484375 -8.890625 Z M 2.484375 -8.890625 "/></g></g></g><g fill="#ff5757" fill-opacity="1"><g transform="translate(250.702268, 222.472663)"><g><path d="M 5.96875 -29.953125 L 6.1875 -29.953125 C 8.6875 -29.953125 9.9375 -28.898438 9.9375 -26.796875 L 9.828125 -25.171875 C 9.453125 -23.328125 9.070312 -21.394531 8.6875 -19.375 L 8.890625 -19.375 C 12.628906 -23.789062 15.941406 -25.847656 18.828125 -25.546875 C 21.710938 -25.242188 23.546875 -23.25 24.328125 -19.5625 C 24.710938 -18.332031 24.96875 -17.34375 25.09375 -16.59375 C 25.09375 -16.457031 25.03125 -16.390625 24.90625 -16.390625 L 25.09375 -14.015625 C 25.09375 -13.078125 24.835938 -9.988281 24.328125 -4.75 L 24.515625 -4.75 C 24.566406 -3.5 25.796875 -3.359375 28.203125 -4.328125 C 30.609375 -5.296875 30.847656 -4.816406 28.921875 -2.890625 C 26.992188 -0.960938 25.203125 0 23.546875 0 C 21.898438 0 20.445312 -0.789062 19.1875 -2.375 C 17.726562 -4.84375 17 -7.210938 17 -9.484375 C 17 -10.765625 17.390625 -14.644531 18.171875 -21.125 L 18.171875 -21.53125 C 16.203125 -20.851562 14.128906 -19.703125 11.953125 -18.078125 C 9.773438 -16.453125 7.941406 -13.757812 6.453125 -10 C 4.972656 -6.25 3.828125 -4.046875 3.015625 -3.390625 L 2.21875 -3.390625 C -0.34375 -3.046875 -1.132812 -5.289062 -0.15625 -10.125 C 1.90625 -18.21875 3.363281 -23.484375 4.21875 -25.921875 C 5.082031 -28.367188 5.664062 -29.710938 5.96875 -29.953125 Z M 5.96875 -29.953125 "/></g></g></g><g fill="#ff5757" fill-opacity="1"><g transform="translate(280.376419, 222.472663)"><g><path d="M 7.328125 -5.15625 C 7.054688 -2.175781 7.976562 -1.066406 10.09375 -1.828125 C 12.207031 -2.597656 13.59375 -3.804688 14.25 -5.453125 C 14.90625 -7.109375 15.234375 -8.570312 15.234375 -9.84375 C 15.234375 -11.113281 15.234375 -11.8125 15.234375 -11.9375 C 15.234375 -12.0625 15.1875 -13 15.09375 -14.75 C 15 -16.507812 14.550781 -17.625 13.75 -18.09375 L 12.96875 -18.09375 C 11.425781 -18.09375 10.367188 -17.460938 9.796875 -16.203125 C 9.234375 -14.953125 8.75 -13.546875 8.34375 -11.984375 C 7.945312 -10.421875 7.609375 -8.144531 7.328125 -5.15625 Z M 2.234375 0.546875 C 0.890625 -1.328125 0.335938 -3.742188 0.578125 -6.703125 C 0.816406 -9.671875 3.28125 -18.773438 7.96875 -34.015625 C 8.5 -35.441406 8.929688 -37.164062 9.265625 -39.1875 C 9.054688 -39.664062 8.953125 -40.367188 8.953125 -41.296875 L 9.265625 -41.484375 C 12.835938 -40.347656 14.625 -39.414062 14.625 -38.6875 C 15 -38.6875 15.378906 -37.601562 15.765625 -35.4375 C 15.765625 -35.21875 15.445312 -33.945312 14.8125 -31.625 C 14.226562 -29.488281 13.132812 -26.191406 11.53125 -21.734375 C 11.976562 -21.722656 12.414062 -21.679688 12.84375 -21.609375 C 15.382812 -21.253906 17.425781 -20.109375 18.96875 -18.171875 C 20.300781 -14.171875 20.96875 -12.007812 20.96875 -11.6875 C 20.96875 -11.375 20.96875 -11.101562 20.96875 -10.875 C 20.96875 -10.65625 20.53125 -9.109375 19.65625 -6.234375 C 18.789062 -3.367188 17.441406 -1.304688 15.609375 -0.046875 C 13.785156 1.210938 11.4375 2.09375 8.5625 2.59375 C 5.695312 3.101562 3.585938 2.421875 2.234375 0.546875 Z M 2.234375 0.546875 "/></g></g></g><g clip-path="url(#746379e38f)"><g clip-path="url(#5d9bb35ad0)"><g clip-path="url(#59ef3657b5)"><path fill="#ff5757" d="M 327.621094 217.960938 C 327.050781 219.351562 326.222656 220.628906 325.164062 221.703125 C 319.34375 227.636719 312.347656 224.410156 310.65625 223.871094 C 308.867188 223.304688 302.085938 220.222656 302.835938 210.070312 C 302.867188 209.644531 302.910156 209.207031 302.972656 208.753906 C 304.433594 197.546875 315.765625 199.730469 315.765625 199.730469 C 320.679688 198.460938 324.191406 200.445312 325.796875 201.683594 C 326.4375 202.179688 326.777344 202.554688 326.777344 202.554688 C 331.457031 206.804688 329.035156 214.527344 327.621094 217.960938 Z M 327.621094 217.960938 " fill-opacity="1" fill-rule="nonzero"/></g></g></g><g clip-path="url(#cfd2ac0edc)"><g clip-path="url(#bb8cc60b1e)"><g clip-path="url(#1ebd34bbaa)"><path stroke-linecap="butt" transform="matrix(0.130415, 0.0219165, -0.0218543, 0.130045, 310.927723, 160.536387)" fill="none" stroke-linejoin="miter" d="M 196.449722 408.465534 C 193.939505 419.58196 189.364766 430.175228 182.816821 439.539085 C 146.849508 491.227724 90.634735 475.890517 77.346031 473.984867 C 63.294818 471.997459 8.863303 457.471111 1.733381 380.605028 C 1.432834 377.381582 1.204989 374.055771 1.103213 370.588564 C -2.04683 284.941606 85.194859 287.029832 85.194859 287.029832 C 120.249045 271.359958 148.923436 281.786575 162.447541 289.029281 C 167.846511 291.93417 170.85074 294.311477 170.85074 294.311477 C 211.074169 320.213542 202.691722 381.010536 196.449722 408.465534 Z M 196.449722 408.465534 " stroke="#000000" stroke-width="2" stroke-opacity="1" stroke-miterlimit="10"/></g></g></g><g clip-path="url(#59fa251551)"><g clip-path="url(#72b9d526ac)"><g clip-path="url(#c561917185)"><path fill="#ff5757" d="M 319.398438 224.984375 C 315.390625 225.847656 311.804688 224.242188 310.652344 223.878906 C 308.867188 223.308594 302.085938 220.230469 302.835938 210.078125 C 302.863281 209.652344 302.910156 209.210938 302.96875 208.761719 C 304.277344 198.746094 313.460938 199.421875 315.402344 199.679688 C 312.105469 200.277344 308.152344 202.34375 307.332031 208.65625 C 307.269531 209.105469 307.226562 209.546875 307.195312 209.972656 C 306.445312 220.125 313.226562 223.207031 315.015625 223.773438 C 315.71875 223.996094 317.332031 224.683594 319.398438 224.984375 Z M 319.398438 224.984375 " fill-opacity="1" fill-rule="nonzero"/></g></g></g><g clip-path="url(#266c501ef0)"><g clip-path="url(#19d2e82307)"><g clip-path="url(#ffe769299b)"><path fill="#7ed957" d="M 331.90625 168.285156 L 329.707031 163.867188 C 329.707031 163.867188 326.941406 166.542969 326.511719 168.289062 C 326.078125 170.03125 318.851562 173.84375 317.96875 185.359375 C 317.082031 196.875 317.082031 196.875 317.082031 196.875 C 317.082031 196.875 315.398438 198.15625 315.761719 199.738281 L 318.542969 199.445312 L 318.140625 196.84375 C 318.140625 196.84375 319.296875 183.378906 319.503906 182.476562 C 320.039062 180.121094 321.542969 174.085938 327.734375 170.167969 C 327.734375 170.167969 331.347656 169.9375 331.90625 168.285156 Z M 331.90625 168.285156 " fill-opacity="1" fill-rule="nonzero"/></g></g></g><g clip-path="url(#a2c4d0960b)"><g clip-path="url(#a210835fc3)"><g clip-path="url(#70c929e7c4)"><path stroke-linecap="butt" transform="matrix(0.130415, 0.0219165, -0.0218543, 0.130045, 310.927723, 160.536387)" fill="none" stroke-linejoin="miter" d="M 166.151766 31.583656 L 144.215194 1.308103 C 144.215194 1.308103 126.944637 24.794445 125.92856 38.392484 C 124.878457 51.96622 75.76632 89.55974 83.614284 176.787929 C 91.433118 264.021027 91.433118 264.021027 91.433118 264.021027 C 91.433118 264.021027 80.483872 275.718625 85.17552 287.093166 L 105.548714 281.406867 L 99.288102 262.456932 C 99.288102 262.456932 91.036474 160.308016 91.449538 153.299721 C 92.488455 135.011969 96.140184 87.988476 137.40078 50.907157 C 137.40078 50.907157 164.056922 44.642597 166.151766 31.583656 Z M 166.151766 31.583656 " stroke="#000000" stroke-width="1.534" stroke-opacity="1" stroke-miterlimit="10"/></g></g></g><g clip-path="url(#87c8ffa017)"><g clip-path="url(#5da54d2c2a)"><g clip-path="url(#545a5fb402)"><path fill="#dd9ba0" d="M 320.339844 201.683594 C 323.089844 201.515625 326.433594 203.316406 326.742188 206.273438 C 326.765625 206.566406 326.75 206.863281 326.703125 207.152344 C 326.546875 206.792969 326.410156 206.449219 326.230469 206.136719 C 324.988281 203.867188 322.566406 202.8125 320.339844 201.683594 Z M 320.339844 201.683594 " fill-opacity="1" fill-rule="nonzero"/></g></g></g><g clip-path="url(#6bef7197cb)"><g clip-path="url(#82cddb075d)"><g clip-path="url(#7effb1adfd)"><path fill="#ffffff" d="M 308.183594 205.707031 L 313.707031 206.105469 L 313.296875 211.722656 L 307.777344 211.320312 Z M 308.183594 205.707031 " fill-opacity="1" fill-rule="nonzero"/></g></g></g><g clip-path="url(#8b6a4c9b2b)"><g clip-path="url(#727f528056)"><g clip-path="url(#ff82ad89b7)"><path fill="#000000" d="M 308.527344 206.40625 L 312.785156 206.714844 L 312.476562 210.972656 L 308.21875 210.664062 Z M 308.527344 206.40625 " fill-opacity="1" fill-rule="nonzero"/></g></g></g><g clip-path="url(#e2ae4eb4f9)"><g clip-path="url(#a363464a0e)"><g clip-path="url(#01943e96a1)"><path fill="#ffffff" d="M 311.167969 207.351562 L 312.902344 207.476562 L 312.800781 208.859375 L 311.070312 208.734375 Z M 311.167969 207.351562 " fill-opacity="1" fill-rule="nonzero"/></g></g></g><g clip-path="url(#0dbe1ee643)"><g clip-path="url(#d9b80ced6a)"><g clip-path="url(#4f92d4dba6)"><path fill="#ffffff" d="M 318.597656 206.460938 L 324.117188 206.863281 L 323.710938 212.480469 L 318.1875 212.078125 Z M 318.597656 206.460938 " fill-opacity="1" fill-rule="nonzero"/></g></g></g><g clip-path="url(#f1823754aa)"><g clip-path="url(#0a7de4ad66)"><g clip-path="url(#53b6c00cf3)"><path fill="#000000" d="M 318.941406 207.164062 L 323.195312 207.472656 L 322.886719 211.730469 L 318.628906 211.421875 Z M 318.941406 207.164062 " fill-opacity="1" fill-rule="nonzero"/></g></g></g><g clip-path="url(#bfa779610e)"><g clip-path="url(#51a70964d7)"><g clip-path="url(#6ccef87421)"><path fill="#ffffff" d="M 321.582031 208.109375 L 323.3125 208.234375 L 323.210938 209.617188 L 321.480469 209.488281 Z M 321.582031 208.109375 " fill-opacity="1" fill-rule="nonzero"/></g></g></g><g clip-path="url(#d63c558cbf)"><g clip-path="url(#9915501f45)"><g clip-path="url(#1a250b5d6a)"><g clip-path="url(#a21ad73aad)"><path fill="#000000" d="M 310.683594 215.457031 C 310.6875 215.445312 310.691406 215.429688 310.695312 215.414062 L 310.710938 215.371094 C 310.722656 215.34375 310.734375 215.320312 310.746094 215.292969 C 310.773438 215.242188 310.800781 215.195312 310.832031 215.152344 C 310.867188 215.109375 310.902344 215.070312 310.941406 215.035156 C 311.019531 214.964844 311.113281 214.910156 311.21875 214.871094 L 311.257812 214.855469 C 311.273438 214.851562 311.285156 214.847656 311.300781 214.84375 C 311.328125 214.839844 311.359375 214.828125 311.390625 214.824219 C 311.417969 214.820312 311.453125 214.816406 311.484375 214.8125 C 311.523438 214.808594 311.539062 214.757812 311.503906 214.738281 C 311.472656 214.714844 311.441406 214.699219 311.40625 214.6875 C 311.371094 214.671875 311.335938 214.664062 311.296875 214.65625 C 311.277344 214.65625 311.257812 214.652344 311.238281 214.652344 L 311.210938 214.648438 C 311.203125 214.648438 311.191406 214.652344 311.183594 214.652344 C 311.027344 214.652344 310.871094 214.71875 310.753906 214.824219 C 310.695312 214.878906 310.644531 214.941406 310.605469 215.011719 C 310.570312 215.078125 310.546875 215.15625 310.535156 215.234375 C 310.53125 215.25 310.53125 215.269531 310.527344 215.289062 C 310.527344 215.300781 310.527344 215.308594 310.527344 215.320312 C 310.527344 215.328125 310.527344 215.339844 310.53125 215.347656 C 310.53125 215.367188 310.53125 215.386719 310.535156 215.40625 C 310.535156 215.421875 310.539062 215.441406 310.542969 215.460938 C 310.550781 215.488281 310.5625 215.519531 310.574219 215.546875 C 310.589844 215.585938 310.652344 215.582031 310.664062 215.535156 C 310.667969 215.511719 310.675781 215.484375 310.683594 215.457031 Z M 320.636719 216.261719 C 320.640625 216.308594 320.699219 216.324219 320.726562 216.285156 C 320.742188 216.257812 320.753906 216.230469 320.765625 216.203125 C 320.773438 216.1875 320.777344 216.167969 320.785156 216.148438 C 320.789062 216.132812 320.792969 216.113281 320.796875 216.09375 C 320.800781 216.085938 320.800781 216.074219 320.804688 216.066406 C 320.804688 216.058594 320.804688 216.046875 320.804688 216.039062 C 320.808594 216.019531 320.808594 216 320.808594 215.980469 C 320.808594 215.902344 320.796875 215.824219 320.769531 215.75 C 320.742188 215.675781 320.703125 215.605469 320.652344 215.542969 C 320.550781 215.421875 320.40625 215.335938 320.253906 215.308594 C 320.242188 215.308594 320.234375 215.304688 320.222656 215.304688 L 320.195312 215.304688 C 320.175781 215.300781 320.15625 215.300781 320.136719 215.300781 C 320.101562 215.304688 320.0625 215.304688 320.027344 215.3125 C 319.988281 215.320312 319.953125 215.332031 319.921875 215.347656 C 319.882812 215.363281 319.890625 215.417969 319.929688 215.425781 C 319.960938 215.433594 319.992188 215.441406 320.023438 215.453125 C 320.050781 215.460938 320.078125 215.476562 320.105469 215.484375 C 320.121094 215.492188 320.132812 215.496094 320.148438 215.503906 L 320.167969 215.511719 L 320.183594 215.523438 C 320.285156 215.578125 320.367188 215.644531 320.433594 215.726562 C 320.46875 215.765625 320.496094 215.8125 320.523438 215.859375 C 320.550781 215.90625 320.570312 215.957031 320.589844 216.007812 C 320.597656 216.035156 320.609375 216.0625 320.613281 216.09375 L 320.621094 216.136719 C 320.625 216.152344 320.628906 216.167969 320.628906 216.183594 C 320.632812 216.207031 320.636719 216.234375 320.636719 216.261719 Z M 315.484375 217.664062 C 314.667969 217.605469 313.871094 217.378906 313.113281 216.992188 C 312.378906 216.617188 311.683594 216.089844 311.039062 215.425781 C 310.992188 215.375 310.992188 215.292969 311.042969 215.246094 C 311.09375 215.195312 311.171875 215.195312 311.222656 215.246094 C 312.484375 216.550781 313.964844 217.300781 315.503906 217.410156 C 317.054688 217.523438 318.640625 216.988281 320.085938 215.863281 C 320.140625 215.820312 320.222656 215.828125 320.265625 215.882812 C 320.308594 215.941406 320.296875 216.019531 320.242188 216.0625 C 319.503906 216.636719 318.734375 217.0625 317.945312 217.335938 C 317.132812 217.613281 316.304688 217.726562 315.484375 217.664062 " fill-opacity="1" fill-rule="nonzero"/></g></g></g></g><g fill="#ff5757" fill-opacity="1"><g transform="translate(141.278011, 250.205761)"><g><path d="M 10.996094 -3.246094 L 11.289062 -3.246094 C 11.5 -3.011719 11.636719 -2.855469 11.65625 -2.796875 L 12.335938 -1.457031 C 12.511719 -1.109375 12.804688 -0.875 13.074219 -0.875 C 13.328125 -0.875 13.582031 -1.183594 13.8125 -1.769531 C 14.046875 -2.3125 14.066406 -2.46875 14.066406 -4.390625 L 14.027344 -7.886719 C 14.007812 -9.054688 14.007812 -9.871094 13.988281 -10.238281 L 13.988281 -10.492188 C 13.988281 -10.839844 14.046875 -11.152344 14.144531 -11.367188 C 14.261719 -11.578125 14.320312 -11.753906 14.320312 -11.851562 C 14.320312 -12.164062 12.6875 -13.230469 12.21875 -13.230469 C 12.164062 -13.230469 11.988281 -13.171875 11.753906 -13.09375 C 11.636719 -13.035156 11.328125 -12.957031 10.996094 -12.902344 C 9.304688 -12.609375 8.101562 -12.355469 6.332031 -11.949219 C 6.121094 -12.007812 5.90625 -12.027344 5.769531 -12.027344 C 5.613281 -12.027344 5.554688 -11.988281 5.480469 -11.832031 C 5.789062 -11.40625 5.847656 -11.25 5.847656 -10.707031 C 5.847656 -9.402344 5.847656 -9.402344 5.769531 -7.886719 C 5.652344 -5.246094 5.652344 -5.148438 5.632812 -4.894531 C 5.59375 -4.527344 5.59375 -4.234375 5.59375 -4.042969 C 5.59375 -3.089844 6.082031 -2.136719 6.566406 -2.136719 C 6.820312 -2.136719 6.996094 -2.332031 7.128906 -2.757812 C 8.472656 -3.011719 10.179688 -3.265625 10.6875 -3.265625 Z M 12.316406 -11.035156 C 12.355469 -9.871094 12.375 -8.527344 12.375 -7.070312 L 12.375 -3.828125 C 12.375 -3.632812 12.355469 -3.574219 12.277344 -3.417969 L 12.125 -3.496094 C 11.753906 -3.984375 11.460938 -4.15625 11.074219 -4.15625 C 10.898438 -4.15625 10.898438 -4.15625 9.054688 -3.847656 C 8.546875 -3.75 8.0625 -3.652344 7.558594 -3.574219 C 7.539062 -3.574219 7.402344 -3.535156 7.1875 -3.515625 C 7.167969 -4.703125 7.148438 -5.574219 7.148438 -6.042969 L 7.148438 -7.460938 C 7.539062 -7.304688 7.769531 -7.226562 7.984375 -7.226562 C 8.257812 -7.226562 9.714844 -7.460938 10.609375 -7.636719 C 11.347656 -7.789062 11.519531 -7.867188 11.519531 -8.082031 C 11.519531 -8.472656 10.996094 -8.742188 10.316406 -8.742188 C 10.023438 -8.742188 9.929688 -8.722656 9.421875 -8.507812 C 8.277344 -8.121094 7.460938 -7.886719 7.148438 -7.886719 L 7.148438 -8.683594 L 7.167969 -10.722656 C 7.167969 -11.074219 7.128906 -11.191406 6.976562 -11.460938 C 7.402344 -11.480469 7.578125 -11.519531 7.867188 -11.578125 C 10.023438 -12.085938 11.269531 -12.296875 11.890625 -12.296875 C 12.199219 -12.296875 12.296875 -12.183594 12.296875 -11.832031 Z M 12.316406 -11.035156 "/></g></g></g><g fill="#ff5757" fill-opacity="1"><g transform="translate(160.69623, 250.205761)"><g><path d="M 1.203125 -2.039062 C 4.175781 -3.070312 6.21875 -4.703125 9.074219 -8.316406 L 9.035156 -3.984375 C 7.148438 -3.632812 6.957031 -3.59375 5.710938 -3.339844 C 6.199219 -2.953125 6.46875 -2.796875 6.78125 -2.796875 C 6.898438 -2.796875 7.015625 -2.816406 7.148438 -2.855469 C 7.5 -2.972656 7.847656 -3.089844 8.199219 -3.1875 C 8.316406 -3.226562 8.585938 -3.285156 8.996094 -3.378906 C 8.976562 -3.070312 8.976562 -2.816406 8.976562 -2.660156 C 8.917969 -1.730469 8.878906 -1.089844 8.878906 -0.953125 C 8.878906 0.078125 9.324219 0.933594 9.851562 0.933594 C 10.179688 0.933594 10.335938 0.484375 10.335938 -0.351562 L 10.316406 -1.847656 L 10.296875 -3.574219 C 11.210938 -3.632812 11.40625 -3.632812 11.792969 -3.632812 C 12.824219 -3.632812 13.09375 -3.691406 13.09375 -3.925781 C 13.09375 -4.078125 12.996094 -4.234375 12.785156 -4.390625 C 12.589844 -4.527344 12.125 -4.703125 11.949219 -4.703125 C 11.832031 -4.703125 11.578125 -4.644531 11.210938 -4.507812 C 10.957031 -4.410156 10.707031 -4.332031 10.277344 -4.273438 L 10.238281 -8.9375 C 12.046875 -6.9375 12.125 -6.839844 12.628906 -6.292969 C 13.582031 -5.324219 14.6875 -4.253906 15.386719 -3.691406 C 15.816406 -3.324219 16.105469 -3.226562 16.785156 -3.226562 C 17.71875 -3.226562 19.175781 -3.378906 19.894531 -3.554688 L 19.914062 -3.632812 C 16.125 -5.148438 13.445312 -6.761719 10.257812 -9.421875 L 10.257812 -10.800781 C 11.074219 -10.976562 12.511719 -11.132812 13.773438 -11.171875 C 14.222656 -11.171875 14.472656 -11.308594 14.472656 -11.519531 C 14.472656 -11.675781 14.378906 -11.8125 14.144531 -11.96875 C 13.929688 -12.105469 13.347656 -12.335938 13.210938 -12.335938 C 13.113281 -12.335938 12.9375 -12.277344 12.6875 -12.183594 C 12.355469 -12.046875 11.792969 -11.871094 10.296875 -11.5 L 10.296875 -12.144531 L 10.335938 -12.589844 C 10.414062 -13.8125 10.433594 -14.144531 10.511719 -14.398438 C 10.589844 -14.667969 10.628906 -14.863281 10.628906 -14.980469 C 10.628906 -15.191406 10.511719 -15.328125 10.160156 -15.523438 C 9.132812 -16.046875 9.132812 -16.046875 8.78125 -16.046875 C 8.566406 -16.046875 8.414062 -15.929688 8.199219 -15.621094 C 8.78125 -15.230469 9.054688 -14.726562 8.996094 -14.144531 L 9.015625 -12.957031 C 9.035156 -12.21875 9.035156 -12.007812 9.035156 -11.269531 C 8.21875 -11.09375 7.675781 -10.976562 7.421875 -10.9375 L 6.082031 -10.707031 C 5.789062 -10.648438 5.265625 -10.550781 4.605469 -10.433594 C 5.304688 -9.910156 5.710938 -9.675781 5.984375 -9.675781 C 6.121094 -9.675781 6.3125 -9.734375 6.546875 -9.8125 C 7.675781 -10.21875 8.238281 -10.394531 8.878906 -10.472656 C 6.878906 -7.070312 3.964844 -3.945312 1.144531 -2.136719 Z M 1.203125 -2.039062 "/></g></g></g><g fill="#ff5757" fill-opacity="1"><g transform="translate(180.114449, 250.205761)"><g><path d="M 6.898438 -13.171875 L 6.9375 -13.851562 L 6.976562 -14.027344 C 6.976562 -14.203125 6.742188 -14.398438 6.371094 -14.550781 C 5.265625 -15 5.265625 -15 5.089844 -15 C 4.894531 -15 4.703125 -14.863281 4.488281 -14.589844 C 4.703125 -14.339844 4.722656 -14.320312 5.089844 -13.910156 C 5.128906 -13.851562 5.1875 -13.714844 5.246094 -13.503906 C 5.246094 -13.464844 5.324219 -13.25 5.421875 -12.9375 C 5.480469 -12.804688 5.613281 -12.335938 5.75 -11.851562 L 4.664062 -11.5 C 3.964844 -11.269531 3.050781 -10.976562 2.273438 -10.742188 C 1.476562 -10.492188 1.359375 -10.453125 0.582031 -10.238281 C 0.738281 -10.0625 0.796875 -10.023438 0.972656 -9.96875 C 1.300781 -9.851562 1.691406 -9.773438 1.960938 -9.773438 C 2.097656 -9.773438 2.390625 -9.851562 2.816406 -10.003906 C 5.226562 -10.859375 5.460938 -10.917969 7.34375 -11.289062 C 7.945312 -11.386719 8.199219 -11.539062 8.199219 -11.792969 C 8.199219 -12.125 7.695312 -12.316406 6.859375 -12.316406 C 6.859375 -12.375 6.839844 -12.414062 6.839844 -12.414062 Z M 2.351562 -3.945312 C 2.566406 -3.710938 2.585938 -3.691406 2.757812 -3.496094 C 2.953125 -3.304688 2.992188 -3.246094 3.050781 -3.089844 C 3.070312 -3.03125 3.324219 -2.410156 3.769531 -1.183594 C 4.136719 -0.445312 4.136719 -0.445312 4.195312 -0.386719 C 4.273438 -0.273438 4.488281 -0.15625 4.625 -0.15625 C 4.816406 -0.15625 4.992188 -0.371094 4.992188 -0.621094 C 4.992188 -0.71875 4.972656 -0.855469 4.953125 -0.972656 C 5.226562 -1.109375 6.238281 -1.320312 7.03125 -1.417969 C 7.460938 -1.457031 7.636719 -1.574219 7.636719 -1.808594 C 7.636719 -1.921875 7.539062 -2.058594 7.324219 -2.195312 C 7.402344 -2.410156 7.421875 -2.488281 7.5 -2.835938 C 7.617188 -3.285156 7.714844 -3.535156 7.808594 -3.710938 C 8.101562 -4.234375 8.101562 -4.234375 8.101562 -4.3125 C 8.101562 -4.449219 7.90625 -4.625 7.480469 -4.894531 C 6.898438 -5.246094 6.761719 -5.304688 6.644531 -5.304688 C 6.585938 -5.304688 6.488281 -5.285156 6.410156 -5.226562 C 5.671875 -4.742188 4.972656 -4.429688 3.828125 -4.0625 C 3.4375 -4.117188 3.070312 -4.136719 2.796875 -4.136719 C 2.601562 -4.136719 2.527344 -4.097656 2.351562 -3.945312 Z M 6.21875 -4.3125 C 6.21875 -4.3125 6.277344 -4.332031 6.351562 -4.371094 C 6.390625 -4.195312 6.390625 -4.136719 6.390625 -3.984375 C 6.390625 -3.710938 6.351562 -3.128906 6.292969 -2.039062 C 5.632812 -1.847656 5.539062 -1.828125 4.816406 -1.632812 C 4.703125 -1.980469 4.605469 -2.292969 4.585938 -2.410156 C 4.449219 -2.875 4.351562 -3.1875 4.3125 -3.324219 C 4.292969 -3.359375 4.253906 -3.4375 4.214844 -3.535156 C 4.371094 -3.613281 4.546875 -3.671875 4.644531 -3.710938 C 5.246094 -3.964844 5.652344 -4.136719 5.808594 -4.175781 Z M 6.429688 -6.429688 C 6.839844 -6.527344 6.839844 -6.527344 6.898438 -6.566406 C 7.089844 -6.644531 7.1875 -6.742188 7.1875 -6.878906 C 7.1875 -6.996094 7.109375 -7.070312 6.917969 -7.148438 C 6.703125 -7.226562 6.257812 -7.324219 6.121094 -7.324219 C 6.003906 -7.324219 5.984375 -7.324219 5.789062 -7.167969 C 5.75 -7.128906 5.632812 -7.070312 5.5 -7.015625 C 5.34375 -6.957031 5.167969 -6.878906 5.011719 -6.800781 L 4.273438 -6.488281 C 3.515625 -6.21875 3.515625 -6.21875 3.339844 -6.140625 C 3.75 -5.90625 3.964844 -5.828125 4.15625 -5.828125 C 4.351562 -5.828125 4.390625 -5.828125 5.90625 -6.277344 Z M 3.398438 -8.375 C 3.964844 -8.121094 4.136719 -8.0625 4.390625 -8.0625 C 4.664062 -8.0625 5.34375 -8.238281 6.449219 -8.585938 C 7.246094 -8.839844 7.34375 -8.898438 7.34375 -9.074219 C 7.34375 -9.34375 6.976562 -9.5 6.292969 -9.5 C 6.0625 -9.5 6.0625 -9.5 5.789062 -9.324219 C 5.769531 -9.285156 5.5 -9.171875 5.226562 -9.054688 C 4.972656 -8.957031 4.722656 -8.859375 4.449219 -8.761719 C 3.730469 -8.507812 3.730469 -8.507812 3.398438 -8.375 Z M 14.414062 -0.738281 L 14.765625 -0.71875 C 15.230469 -0.71875 15.328125 -0.796875 15.328125 -1.125 C 15.328125 -1.261719 15.269531 -1.359375 15.078125 -1.476562 C 15.152344 -1.652344 15.210938 -1.769531 15.230469 -1.808594 C 15.367188 -2.175781 15.523438 -2.546875 15.679688 -2.914062 C 15.835938 -3.285156 16.046875 -3.671875 16.085938 -3.671875 C 16.457031 -3.945312 16.496094 -3.984375 16.496094 -4.175781 C 16.496094 -4.332031 16.144531 -4.664062 15.621094 -5.03125 C 14.960938 -5.480469 14.960938 -5.480469 14.824219 -5.480469 C 14.746094 -5.480469 14.570312 -5.421875 14.300781 -5.304688 C 13.871094 -5.089844 12.9375 -4.894531 10.917969 -4.566406 L 10.589844 -4.507812 C 9.910156 -4.78125 9.695312 -4.835938 9.402344 -4.835938 C 9.324219 -4.835938 9.191406 -4.816406 9.054688 -4.78125 C 9.132812 -4.605469 9.230469 -4.429688 9.246094 -4.410156 C 9.34375 -4.3125 9.421875 -4.195312 9.519531 -4.078125 C 9.578125 -4.042969 9.792969 -3.226562 9.949219 -2.410156 C 10.238281 -0.894531 10.394531 -0.351562 10.589844 -0.078125 C 10.707031 0.078125 10.917969 0.214844 11.054688 0.214844 C 11.308594 0.214844 11.445312 -0.0195312 11.539062 -0.601562 C 12.066406 -0.660156 13.445312 -0.738281 13.929688 -0.738281 Z M 14.492188 -4.351562 C 14.492188 -4.234375 14.492188 -4.078125 14.453125 -3.886719 C 14.359375 -3.398438 14.203125 -2.488281 14.046875 -1.535156 C 12.804688 -1.417969 12.628906 -1.378906 11.445312 -1.203125 C 11.367188 -1.789062 11.269531 -2.429688 11.191406 -3.128906 C 11.132812 -3.652344 11.113281 -3.710938 11.015625 -4.042969 C 13.054688 -4.410156 13.289062 -4.449219 14.492188 -4.488281 Z M 11.40625 -13.25 C 11.445312 -13.25 11.519531 -13.269531 11.636719 -13.289062 C 11.695312 -13.09375 11.714844 -12.976562 11.714844 -12.921875 C 11.714844 -12.707031 11.328125 -11.445312 10.996094 -10.492188 C 9.832031 -10.199219 9.5 -10.121094 8.839844 -10.003906 C 8.9375 -9.851562 8.976562 -9.8125 9.09375 -9.753906 C 9.421875 -9.617188 9.792969 -9.519531 10.042969 -9.519531 C 10.160156 -9.519531 10.257812 -9.519531 10.722656 -9.636719 C 10.335938 -8.527344 10.277344 -8.335938 9.792969 -7.128906 C 8.585938 -6.917969 8.257812 -6.859375 7.558594 -6.800781 C 7.828125 -6.429688 8.316406 -6.082031 8.546875 -6.082031 C 8.566406 -6.082031 8.644531 -6.101562 8.742188 -6.140625 C 9.035156 -6.257812 10.800781 -6.644531 11.480469 -6.742188 C 13.210938 -6.976562 14.085938 -7.070312 14.84375 -7.070312 C 15.796875 -7.070312 17.078125 -6.996094 17.484375 -6.898438 C 17.894531 -6.820312 18.222656 -6.761719 18.4375 -6.761719 C 18.632812 -6.761719 18.789062 -6.898438 18.789062 -7.070312 C 18.789062 -7.265625 18.574219 -7.5 18.183594 -7.753906 C 17.757812 -8.003906 17.367188 -8.179688 17.195312 -8.179688 C 17.117188 -8.179688 16.960938 -8.140625 16.746094 -8.082031 C 16.417969 -7.964844 15.738281 -7.867188 14.628906 -7.753906 C 15.039062 -8.742188 15.191406 -9.152344 15.269531 -9.34375 C 15.40625 -9.695312 15.445312 -9.773438 15.621094 -9.96875 C 15.757812 -10.140625 15.816406 -10.21875 15.816406 -10.316406 C 15.816406 -10.472656 15.71875 -10.570312 15.171875 -10.9375 C 14.492188 -11.40625 14.492188 -11.40625 14.398438 -11.40625 C 14.300781 -11.40625 14.125 -11.328125 13.871094 -11.210938 C 13.640625 -11.09375 13.621094 -11.09375 12.648438 -10.859375 C 12.628906 -10.839844 12.492188 -10.820312 12.375 -10.78125 C 12.492188 -11.113281 12.53125 -11.191406 12.589844 -11.347656 C 12.726562 -11.65625 12.726562 -11.65625 13.09375 -12.472656 C 13.152344 -12.609375 13.171875 -12.707031 13.171875 -12.765625 C 13.171875 -12.9375 13.113281 -13.035156 12.746094 -13.523438 C 13.660156 -13.695312 14.960938 -13.929688 15.347656 -13.949219 C 15.601562 -13.988281 15.71875 -14.066406 15.71875 -14.242188 C 15.71875 -14.378906 15.640625 -14.472656 15.445312 -14.570312 C 14.941406 -14.785156 14.628906 -14.882812 14.453125 -14.882812 C 14.339844 -14.882812 14.164062 -14.84375 13.929688 -14.746094 C 12.902344 -14.261719 10.375 -13.675781 9.539062 -13.714844 C 9.851562 -13.328125 10.199219 -13.132812 10.589844 -13.132812 C 10.667969 -13.132812 10.742188 -13.132812 10.839844 -13.152344 Z M 13.96875 -10.492188 C 13.988281 -10.394531 14.007812 -10.316406 14.007812 -10.257812 C 14.007812 -10.179688 13.988281 -10.082031 13.949219 -9.929688 C 13.910156 -9.773438 13.851562 -9.441406 13.753906 -8.957031 C 13.640625 -8.355469 13.5625 -8.042969 13.445312 -7.617188 C 12.257812 -7.480469 12.085938 -7.460938 10.9375 -7.304688 C 11.539062 -8.625 11.617188 -8.820312 12.105469 -10.082031 C 12.824219 -10.296875 13.660156 -10.492188 13.832031 -10.492188 Z M 13.96875 -10.492188 "/></g></g></g><g fill="#ff5757" fill-opacity="1"><g transform="translate(199.532667, 250.205761)"><g><path d="M 7.734375 -8.316406 C 7.441406 -8.21875 7.070312 -8.101562 6.9375 -8.042969 C 5.710938 -7.617188 4.992188 -7.34375 4.761719 -7.265625 C 4.175781 -7.089844 3.886719 -7.015625 3.089844 -6.859375 C 3.613281 -6.449219 4.273438 -6.121094 4.546875 -6.121094 C 4.625 -6.121094 4.761719 -6.160156 4.914062 -6.257812 C 5.710938 -6.664062 5.730469 -6.683594 6.78125 -7.109375 L 7.265625 -7.304688 L 7.753906 -7.5 C 7.789062 -4.175781 7.828125 -3.710938 8.140625 -3.207031 C 8.605469 -2.488281 9.714844 -2.15625 11.734375 -2.15625 C 13.582031 -2.15625 14.648438 -2.449219 14.648438 -2.953125 C 14.648438 -3.089844 14.570312 -3.207031 14.414062 -3.324219 C 14.144531 -3.554688 13.523438 -3.769531 13.191406 -3.769531 C 13.054688 -3.769531 12.921875 -3.730469 12.765625 -3.671875 C 11.949219 -3.359375 11.753906 -3.324219 10.820312 -3.324219 C 9.910156 -3.324219 9.382812 -3.4375 9.152344 -3.730469 C 8.917969 -4.003906 8.878906 -4.488281 8.878906 -7.03125 C 8.878906 -7.070312 8.878906 -7.34375 8.898438 -7.945312 L 9.363281 -8.121094 C 11.539062 -8.917969 12.183594 -9.132812 13.523438 -9.5 C 12.957031 -8.492188 11.714844 -6.957031 10.414062 -5.632812 L 10.453125 -5.59375 C 11.539062 -6.140625 12.144531 -6.507812 13.171875 -7.324219 C 14.453125 -8.335938 14.609375 -8.453125 14.902344 -8.585938 C 15.582031 -8.878906 15.738281 -8.996094 15.738281 -9.191406 C 15.738281 -9.636719 14.609375 -10.6875 14.125 -10.6875 C 14.066406 -10.6875 13.949219 -10.648438 13.8125 -10.570312 C 13.386719 -10.296875 13.328125 -10.257812 12.921875 -10.121094 C 12.453125 -9.96875 12.007812 -9.8125 11.519531 -9.65625 C 11.460938 -9.636719 10.609375 -9.324219 9.015625 -8.761719 L 8.9375 -8.722656 L 8.976562 -9.074219 C 9.074219 -10.722656 9.132812 -11.113281 9.363281 -11.988281 C 9.421875 -12.144531 9.441406 -12.296875 9.441406 -12.394531 C 9.441406 -12.589844 9.246094 -12.824219 8.878906 -13.035156 C 8.375 -13.347656 8.003906 -13.523438 7.828125 -13.523438 C 7.636719 -13.523438 7.539062 -13.464844 7.050781 -13.035156 C 7.753906 -12.648438 7.769531 -12.609375 7.769531 -11.851562 C 7.769531 -11.851562 7.769531 -10.957031 7.753906 -9.191406 L 7.734375 -8.761719 Z M 7.734375 -8.316406 "/></g></g></g><g fill="#ff5757" fill-opacity="1"><g transform="translate(218.950886, 250.205761)"><g><path d="M 4.875 -12.164062 C 4.933594 -12.105469 4.992188 -12.046875 5.050781 -12.007812 C 5.285156 -11.8125 5.519531 -11.617188 5.769531 -11.425781 L 6.996094 -10.199219 C 7.285156 -9.890625 7.480469 -9.792969 7.734375 -9.792969 C 8.121094 -9.792969 8.335938 -10.0625 8.335938 -10.550781 C 8.335938 -11.035156 8.0625 -11.5 7.65625 -11.714844 C 7.089844 -12.027344 6.0625 -12.257812 5.363281 -12.257812 C 5.246094 -12.257812 5.089844 -12.257812 4.875 -12.238281 Z M 16.667969 -11.773438 C 15.699219 -10.160156 14.628906 -8.957031 12.804688 -7.460938 C 11.035156 -5.984375 7.207031 -3.554688 6.683594 -3.554688 C 6.449219 -3.554688 6.140625 -3.710938 5.789062 -3.984375 C 5.710938 -3.730469 5.652344 -3.496094 5.652344 -3.457031 C 5.652344 -3.265625 5.984375 -2.71875 6.390625 -2.273438 C 6.683594 -1.921875 6.957031 -1.75 7.1875 -1.75 C 7.304688 -1.75 7.441406 -1.828125 7.539062 -1.921875 C 7.714844 -2.175781 7.734375 -2.175781 8.003906 -2.371094 C 11.074219 -4.46875 12.085938 -5.285156 13.890625 -7.109375 C 15.425781 -8.722656 16.457031 -10.375 16.765625 -11.753906 Z M 16.667969 -11.773438 "/></g></g></g><g fill="#ff5757" fill-opacity="1"><g transform="translate(238.369104, 250.205761)"><g><path d="M 3.730469 -0.503906 C 5.148438 -0.71875 7.050781 -1.75 8.394531 -3.011719 C 9.851562 -4.332031 11.367188 -6.410156 12.707031 -8.976562 C 12.957031 -9.441406 13.191406 -9.910156 13.425781 -10.375 C 13.5625 -10.628906 13.714844 -10.859375 13.753906 -10.898438 C 14.28125 -11.5 14.300781 -11.539062 14.300781 -11.714844 C 14.300781 -12.164062 13.210938 -13.191406 12.746094 -13.191406 C 12.628906 -13.191406 12.628906 -13.191406 11.96875 -12.863281 C 10.160156 -12.316406 10.121094 -12.316406 9.65625 -12.316406 C 9.714844 -12.433594 9.753906 -12.53125 9.753906 -12.589844 C 9.753906 -12.726562 9.597656 -12.976562 9.34375 -13.210938 C 8.898438 -13.621094 8.492188 -13.832031 8.121094 -13.832031 C 7.984375 -13.832031 7.90625 -13.773438 7.789062 -13.601562 C 8.003906 -13.25 8.082031 -13.054688 8.082031 -12.902344 C 8.082031 -12.355469 7.1875 -10.707031 6.238281 -9.5 C 5.539062 -8.605469 4.703125 -7.695312 4.234375 -7.285156 L 4.273438 -7.226562 C 5.207031 -7.578125 5.984375 -8.0625 7.089844 -9.054688 C 7.285156 -8.917969 7.363281 -8.859375 7.558594 -8.683594 C 8.527344 -7.714844 9.054688 -7.207031 9.171875 -7.109375 C 9.441406 -6.898438 9.558594 -6.859375 9.910156 -6.800781 C 8.179688 -4.042969 5.769531 -1.632812 3.710938 -0.582031 Z M 10.316406 -7.421875 C 9.929688 -8.625 9.578125 -8.839844 7.304688 -9.285156 C 7.964844 -9.96875 8.605469 -10.761719 9.265625 -11.753906 C 9.617188 -11.65625 9.871094 -11.597656 10.023438 -11.597656 C 10.101562 -11.597656 10.160156 -11.597656 10.21875 -11.617188 C 12.085938 -11.96875 12.085938 -11.96875 12.277344 -11.96875 C 12.355469 -11.96875 12.394531 -11.929688 12.394531 -11.832031 C 12.394531 -11.367188 11.367188 -9.210938 10.316406 -7.421875 Z M 10.316406 -7.421875 "/></g></g></g><g fill="#ff5757" fill-opacity="1"><g transform="translate(257.787323, 250.205761)"><g><path d="M 2.679688 -7.65625 C 2.71875 -7.597656 2.757812 -7.558594 2.777344 -7.539062 C 2.875 -7.460938 2.875 -7.460938 2.914062 -7.402344 C 3.515625 -6.78125 3.710938 -6.644531 4.097656 -6.644531 C 4.253906 -6.644531 4.46875 -6.664062 4.703125 -6.683594 L 8.316406 -6.996094 C 9.890625 -7.128906 11.289062 -7.1875 12.863281 -7.1875 C 13.386719 -7.1875 13.792969 -7.1875 14.144531 -7.167969 C 15.097656 -7.148438 15.777344 -7.128906 16.164062 -7.128906 C 16.535156 -7.128906 16.765625 -7.265625 16.765625 -7.480469 C 16.765625 -7.90625 16.066406 -8.527344 15.582031 -8.527344 C 15.542969 -8.527344 15.503906 -8.527344 15.425781 -8.507812 C 14.726562 -8.394531 14.550781 -8.375 12.6875 -8.277344 L 11.074219 -8.179688 L 8.355469 -8.003906 L 6.082031 -7.847656 L 4.097656 -7.734375 Z M 2.679688 -7.65625 "/></g></g></g></svg>